<?xml version="1.0" standalone="no"?>
<!DOCTYPE svg PUBLIC "-//W3C//DTD SVG 20010904//EN"
 "http://www.w3.org/TR/2001/REC-SVG-20010904/DTD/svg10.dtd">
<svg version="1.0" xmlns="http://www.w3.org/2000/svg"
 width="200.000000pt" height="200.000000pt" viewBox="0 0 200.000000 200.000000"
 preserveAspectRatio="xMidYMid meet">

<g transform="translate(0.000000,200.000000) scale(0.100000,-0.100000)"
fill="#000000" stroke="none">
<path d="M1036 1738 c-4 -40 -9 -81 -12 -90 -3 -12 0 -18 9 -18 10 0 18 14 22
39 5 32 10 38 26 34 10 -3 19 0 19 6 0 6 -6 11 -14 11 -20 0 -26 12 -19 38 3
15 13 22 29 22 35 0 29 16 -7 24 -17 3 -35 6 -39 6 -4 0 -10 -33 -14 -72z"/>
<path d="M750 1725 c0 -14 4 -25 8 -25 4 0 16 -22 26 -50 18 -50 28 -58 56
-40 12 8 12 10 -3 16 -21 8 -50 72 -42 93 6 15 -11 31 -32 31 -7 0 -13 -11
-13 -25z"/>
<path d="M1186 1732 c-2 -4 -13 -31 -24 -59 -22 -57 -18 -66 29 -78 24 -6 27
-3 49 55 12 33 20 64 16 67 -10 10 -24 -9 -39 -52 -8 -22 -21 -41 -31 -43 -15
-3 -14 2 4 48 11 28 20 55 20 60 0 12 -17 13 -24 2z"/>
<path d="M634 1707 c-2 -7 2 -32 11 -56 8 -24 15 -46 15 -48 0 -3 -18 9 -39
26 -40 32 -61 39 -61 20 0 -14 91 -139 102 -139 15 0 8 17 -23 60 l-31 43 30
-22 c48 -34 65 -25 41 21 -20 37 -2 29 29 -12 16 -23 33 -37 36 -31 6 9 -89
151 -100 151 -3 0 -7 -6 -10 -13z"/>
<path d="M1352 1699 c2 -6 8 -10 13 -10 5 0 11 4 13 10 2 6 -4 11 -13 11 -9 0
-15 -5 -13 -11z"/>
<path d="M1291 1611 c-22 -32 -47 -61 -56 -65 -19 -7 -11 -26 10 -26 13 0 88
100 101 135 14 36 -18 10 -55 -44z"/>
<path d="M880 1641 c0 -12 6 -21 16 -21 9 0 14 7 12 17 -5 25 -28 28 -28 4z"/>
<path d="M1435 1641 c-6 -11 9 -23 19 -14 9 9 7 23 -3 23 -6 0 -12 -4 -16 -9z"/>
<path d="M1361 1564 c-40 -45 -49 -64 -33 -64 14 0 103 96 96 103 -13 13 -22
7 -63 -39z"/>
<path d="M943 1390 c-89 -21 -166 -100 -180 -185 -6 -40 -30 -61 -127 -116
-33 -18 -54 -35 -47 -37 6 -2 44 16 84 40 91 54 87 53 87 31 1 -30 35 -97 68
-129 l31 -31 -38 -37 c-69 -67 -151 -78 -151 -20 0 14 -4 22 -10 19 -17 -11
-11 -54 9 -65 47 -24 109 -2 182 66 25 24 27 24 81 10 51 -13 129 -9 159 9 5
4 36 -15 68 -40 88 -69 171 -74 171 -9 0 12 -5 26 -11 30 -7 4 -9 0 -5 -12 9
-29 -9 -47 -42 -46 -38 1 -63 14 -111 58 l-38 34 38 40 c23 24 45 61 55 93
l17 54 80 -49 c44 -26 87 -48 96 -47 19 0 23 -2 -94 67 -71 42 -81 51 -91 88
-28 96 -81 153 -166 179 -56 16 -67 17 -115 5z"/>
<path d="M940 815 c0 -8 7 -15 15 -15 8 0 15 7 15 15 0 8 -7 15 -15 15 -8 0
-15 -7 -15 -15z"/>
<path d="M997 823 c-12 -11 -8 -23 8 -23 8 0 15 7 15 15 0 16 -12 20 -23 8z"/>
<path d="M722 728 c-2 -76 -3 -78 -27 -78 -16 0 -25 -6 -25 -15 0 -13 43 -15
330 -15 287 0 330 2 330 15 0 10 -11 15 -35 15 l-35 0 0 75 c0 43 -4 75 -10
75 -6 0 -10 -32 -10 -75 l0 -75 -255 0 -254 0 -4 78 -3 77 -2 -77z"/>
<path d="M940 755 c0 -8 7 -15 15 -15 8 0 15 7 15 15 0 8 -7 15 -15 15 -8 0
-15 -7 -15 -15z"/>
<path d="M992 758 c6 -18 28 -21 28 -4 0 9 -7 16 -16 16 -9 0 -14 -5 -12 -12z"/>
<path d="M777 583 c-15 -15 -7 -55 13 -60 11 -3 20 -14 20 -24 0 -21 -16 -26
-23 -6 -2 6 -8 9 -12 5 -15 -14 5 -39 27 -36 18 2 24 11 26 36 3 27 0 32 -17
32 -14 0 -21 6 -21 20 0 22 16 27 23 8 2 -7 8 -10 12 -6 13 12 -3 38 -23 38
-10 0 -22 -3 -25 -7z"/>
<path d="M917 583 c-11 -10 -8 -123 3 -123 6 0 10 28 10 65 0 65 -1 71 -13 58z"/>
<path d="M1020 525 c0 -65 19 -95 21 -32 l1 32 9 -32 c15 -52 29 -38 29 27 0
58 -19 88 -21 33 -1 -27 -1 -27 -10 5 -15 52 -29 37 -29 -33z"/>
<path d="M1166 564 c-9 -23 -7 -77 3 -92 4 -8 19 -12 32 -10 18 2 25 10 27 31
2 18 -1 27 -11 27 -10 0 -13 -8 -9 -25 2 -15 0 -25 -7 -25 -7 0 -11 20 -11 50
0 46 12 67 23 38 2 -7 8 -10 12 -6 12 11 -5 28 -30 28 -12 0 -26 -7 -29 -16z"/>
<path d="M979 418 c0 -2 -2 -18 -5 -35 -3 -30 -1 -33 21 -33 14 0 25 5 25 11
0 6 -9 8 -22 3 -21 -6 -21 -6 -5 10 21 21 22 46 2 46 -8 0 -15 -1 -16 -2z"/>
<path d="M665 273 c14 -82 17 -94 28 -90 7 2 13 16 15 30 4 37 22 34 22 -3 0
-44 26 -38 34 8 4 20 9 49 12 65 3 15 1 27 -5 27 -5 0 -13 -21 -17 -47 l-8
-48 -8 44 c-4 24 -10 46 -13 49 -9 9 -15 -4 -23 -49 l-8 -44 -8 48 c-4 26 -12
47 -17 47 -6 0 -7 -15 -4 -37z"/>
<path d="M866 283 c-16 -84 -18 -103 -7 -103 6 0 11 7 11 15 0 8 7 15 15 15 8
0 15 -7 15 -15 0 -8 5 -15 10 -15 13 0 13 4 -1 73 -13 61 -34 76 -43 30z m21
-50 c-3 -10 -5 -2 -5 17 0 19 2 27 5 18 2 -10 2 -26 0 -35z"/>
<path d="M990 300 c0 -5 5 -10 10 -10 6 0 10 -25 10 -55 0 -30 5 -55 10 -55 6
0 10 25 10 55 0 30 5 55 10 55 6 0 10 5 10 10 0 6 -13 10 -30 10 -16 0 -30 -4
-30 -10z"/>
<path d="M1136 302 c-10 -16 -17 -82 -11 -101 8 -25 53 -29 62 -6 9 25 -6 31
-22 9 -13 -17 -14 -15 -15 34 0 48 12 69 23 40 2 -7 8 -10 12 -6 4 4 2 14 -5
23 -13 16 -36 20 -44 7z"/>
<path d="M1270 240 c0 -33 4 -60 10 -60 6 0 10 11 10 25 0 14 5 25 10 25 6 0
10 -11 10 -25 0 -14 5 -25 10 -25 6 0 10 27 10 60 0 33 -4 60 -10 60 -5 0 -10
-11 -10 -25 0 -14 -4 -25 -10 -25 -5 0 -10 11 -10 25 0 14 -4 25 -10 25 -6 0
-10 -27 -10 -60z"/>
</g>
</svg>
